<?xml version="1.0" standalone="no"?>
<!DOCTYPE svg PUBLIC "-//W3C//DTD SVG 20010904//EN"
 "http://www.w3.org/TR/2001/REC-SVG-20010904/DTD/svg10.dtd">
<svg version="1.0" xmlns="http://www.w3.org/2000/svg"
 width="782.000000pt" height="782.000000pt" viewBox="0 0 782.000000 782.000000"
 preserveAspectRatio="xMidYMid meet">
<metadata>
Created by potrace 1.11, written by Peter Selinger 2001-2013
</metadata>
<g transform="translate(0.000000,782.000000) scale(0.100000,-0.100000)"
fill="#000000" stroke="none">
<path d="M37 7498 c21 -40 41 -75 44 -78 3 -3 15 -25 27 -50 12 -25 40 -79 63
-120 22 -41 67 -124 99 -185 31 -60 66 -126 77 -145 11 -19 39 -73 64 -120 24
-47 48 -88 54 -92 5 -4 6 -8 1 -8 -5 0 -4 -6 2 -12 9 -12 34 -57 132 -243 20
-38 59 -110 85 -160 83 -154 123 -228 146 -275 13 -25 25 -47 28 -50 4 -3 17
-29 31 -59 14 -30 30 -59 35 -65 6 -6 29 -50 53 -96 23 -47 57 -112 75 -145
18 -33 53 -98 78 -145 24 -47 47 -86 51 -88 5 -2 8 -12 8 -22 0 -10 3 -20 8
-22 4 -1 19 -28 35 -58 15 -30 46 -89 68 -130 23 -41 64 -118 92 -170 60 -114
106 -201 157 -295 20 -38 55 -104 77 -145 22 -41 59 -111 83 -155 94 -176 124
-234 168 -315 25 -47 61 -114 80 -150 19 -35 55 -103 80 -150 24 -47 59 -112
77 -145 18 -33 53 -98 77 -145 25 -47 80 -150 123 -230 42 -80 91 -172 109
-205 17 -33 34 -61 39 -63 4 -2 7 -12 7 -22 0 -10 3 -20 8 -22 7 -3 18 -24
116 -213 22 -44 43 -82 46 -85 3 -3 18 -30 33 -60 16 -30 49 -93 74 -140 25
-47 66 -123 91 -170 24 -47 57 -107 72 -135 15 -27 49 -90 75 -140 80 -152
190 -358 235 -440 15 -27 53 -99 85 -160 32 -60 73 -138 91 -173 74 -136 103
-191 159 -297 32 -60 70 -132 85 -160 15 -27 46 -86 70 -130 61 -114 108 -202
140 -260 15 -27 35 -65 44 -83 l17 -33 33 63 c18 35 57 108 86 163 29 55 66
125 82 155 16 30 43 80 59 110 33 60 100 185 187 350 31 58 69 128 84 155 15
28 38 70 51 95 44 84 118 225 151 285 67 124 135 252 167 315 19 36 36 67 39
70 5 5 73 134 130 245 14 28 28 52 32 53 5 2 8 12 8 22 0 10 3 20 7 22 9 3 11
7 116 208 38 74 74 137 79 138 4 2 8 11 8 21 0 9 4 21 9 27 5 5 28 45 52 89
23 44 57 109 77 145 19 36 57 108 84 160 28 52 54 100 58 105 4 6 31 55 60
110 29 55 69 132 90 170 41 77 97 182 161 303 23 42 46 81 50 87 5 5 9 17 9
26 0 10 4 19 8 21 5 2 33 50 63 108 29 58 58 108 64 112 5 4 6 8 2 8 -5 0 1
13 12 29 12 16 21 32 21 35 0 3 26 54 58 113 69 126 121 223 187 348 26 50 66
124 88 165 22 41 58 109 80 150 22 41 54 102 72 135 18 33 56 105 85 160 29
55 65 123 80 150 15 28 49 91 75 140 26 50 60 113 75 140 15 28 51 95 80 150
91 173 95 180 105 187 6 4 6 8 2 8 -5 0 0 12 10 28 10 15 33 56 52 92 18 36
47 92 65 125 18 33 59 110 91 170 32 61 76 141 97 178 21 38 38 72 38 76 0 5
11 25 25 45 13 20 22 36 18 36 -3 0 1 8 10 18 10 10 15 21 12 24 -3 3 1 11 10
18 8 7 15 17 15 22 0 5 18 40 39 78 22 39 37 70 33 70 -4 0 -2 4 4 8 6 4 33
50 60 102 27 52 52 98 57 101 5 3 7 8 6 10 -2 2 18 43 44 90 26 47 47 91 47
98 0 6 4 11 8 11 5 0 16 18 25 40 l15 40 -1954 0 -1954 0 0 -622 c0 -675 4
-638 -52 -538 -14 25 -39 69 -57 98 -17 29 -31 57 -31 62 0 6 -4 10 -9 10 -5
0 -16 17 -25 38 -9 20 -39 73 -66 117 -27 44 -53 87 -57 95 -4 8 -47 85 -97
170 -49 85 -94 164 -100 175 -6 10 -17 25 -23 33 -7 7 -13 17 -13 21 0 5 -20
42 -45 83 -25 42 -45 80 -45 87 0 6 -4 11 -9 11 -5 0 -11 6 -13 13 -2 6 -21
42 -43 80 l-39 67 -1593 0 -1593 0 37 -72z"/>
</g>
</svg>
